<mxfile host="app.diagrams.net" agent="Mozilla/5.0 (Windows NT 10.0; Win64; x64) AppleWebKit/537.36 (KHTML, like Gecko) Chrome/137.0.0.0 Safari/537.36" version="27.1.6">
  <diagram name="Page-1" id="FojB7Ix75SVdX9Y2lL35">
    <mxGraphModel dx="1603" dy="865" grid="1" gridSize="10" guides="1" tooltips="1" connect="1" arrows="1" fold="1" page="1" pageScale="1" pageWidth="850" pageHeight="1100" math="0" shadow="0">
      <root>
        <mxCell id="0" />
        <mxCell id="1" parent="0" />
        <mxCell id="AhhlYTa0sZxWNyeGlSW6-1" value="Users" style="shape=table;startSize=30;container=1;collapsible=1;childLayout=tableLayout;fixedRows=1;rowLines=0;fontStyle=1;align=center;resizeLast=1;html=1;rounded=1;labelBackgroundColor=none;fillColor=#F5AB50;strokeColor=#909090;fontColor=#1A1A1A;" vertex="1" parent="1">
          <mxGeometry x="40" y="360" width="180" height="240" as="geometry" />
        </mxCell>
        <mxCell id="AhhlYTa0sZxWNyeGlSW6-2" value="" style="shape=tableRow;horizontal=0;startSize=0;swimlaneHead=0;swimlaneBody=0;fillColor=none;collapsible=0;dropTarget=0;points=[[0,0.5],[1,0.5]];portConstraint=eastwest;top=0;left=0;right=0;bottom=1;rounded=1;labelBackgroundColor=none;strokeColor=#909090;fontColor=#1A1A1A;" vertex="1" parent="AhhlYTa0sZxWNyeGlSW6-1">
          <mxGeometry y="30" width="180" height="30" as="geometry" />
        </mxCell>
        <mxCell id="AhhlYTa0sZxWNyeGlSW6-3" value="PK" style="shape=partialRectangle;connectable=0;fillColor=none;top=0;left=0;bottom=0;right=0;fontStyle=1;overflow=hidden;whiteSpace=wrap;html=1;rounded=1;labelBackgroundColor=none;strokeColor=#909090;fontColor=#1A1A1A;" vertex="1" parent="AhhlYTa0sZxWNyeGlSW6-2">
          <mxGeometry width="30" height="30" as="geometry">
            <mxRectangle width="30" height="30" as="alternateBounds" />
          </mxGeometry>
        </mxCell>
        <mxCell id="AhhlYTa0sZxWNyeGlSW6-4" value="UserID" style="shape=partialRectangle;connectable=0;fillColor=none;top=0;left=0;bottom=0;right=0;align=left;spacingLeft=6;fontStyle=5;overflow=hidden;whiteSpace=wrap;html=1;rounded=1;labelBackgroundColor=none;strokeColor=#909090;fontColor=#1A1A1A;" vertex="1" parent="AhhlYTa0sZxWNyeGlSW6-2">
          <mxGeometry x="30" width="150" height="30" as="geometry">
            <mxRectangle width="150" height="30" as="alternateBounds" />
          </mxGeometry>
        </mxCell>
        <mxCell id="AhhlYTa0sZxWNyeGlSW6-5" value="" style="shape=tableRow;horizontal=0;startSize=0;swimlaneHead=0;swimlaneBody=0;fillColor=none;collapsible=0;dropTarget=0;points=[[0,0.5],[1,0.5]];portConstraint=eastwest;top=0;left=0;right=0;bottom=0;rounded=1;labelBackgroundColor=none;strokeColor=#909090;fontColor=#1A1A1A;" vertex="1" parent="AhhlYTa0sZxWNyeGlSW6-1">
          <mxGeometry y="60" width="180" height="30" as="geometry" />
        </mxCell>
        <mxCell id="AhhlYTa0sZxWNyeGlSW6-6" value="" style="shape=partialRectangle;connectable=0;fillColor=none;top=0;left=0;bottom=0;right=0;editable=1;overflow=hidden;whiteSpace=wrap;html=1;rounded=1;labelBackgroundColor=none;strokeColor=#909090;fontColor=#1A1A1A;" vertex="1" parent="AhhlYTa0sZxWNyeGlSW6-5">
          <mxGeometry width="30" height="30" as="geometry">
            <mxRectangle width="30" height="30" as="alternateBounds" />
          </mxGeometry>
        </mxCell>
        <mxCell id="AhhlYTa0sZxWNyeGlSW6-7" value="Name" style="shape=partialRectangle;connectable=0;fillColor=none;top=0;left=0;bottom=0;right=0;align=left;spacingLeft=6;overflow=hidden;whiteSpace=wrap;html=1;rounded=1;labelBackgroundColor=none;strokeColor=#909090;fontColor=#1A1A1A;" vertex="1" parent="AhhlYTa0sZxWNyeGlSW6-5">
          <mxGeometry x="30" width="150" height="30" as="geometry">
            <mxRectangle width="150" height="30" as="alternateBounds" />
          </mxGeometry>
        </mxCell>
        <mxCell id="AhhlYTa0sZxWNyeGlSW6-8" value="" style="shape=tableRow;horizontal=0;startSize=0;swimlaneHead=0;swimlaneBody=0;fillColor=none;collapsible=0;dropTarget=0;points=[[0,0.5],[1,0.5]];portConstraint=eastwest;top=0;left=0;right=0;bottom=0;rounded=1;labelBackgroundColor=none;strokeColor=#909090;fontColor=#1A1A1A;" vertex="1" parent="AhhlYTa0sZxWNyeGlSW6-1">
          <mxGeometry y="90" width="180" height="30" as="geometry" />
        </mxCell>
        <mxCell id="AhhlYTa0sZxWNyeGlSW6-9" value="" style="shape=partialRectangle;connectable=0;fillColor=none;top=0;left=0;bottom=0;right=0;editable=1;overflow=hidden;whiteSpace=wrap;html=1;rounded=1;labelBackgroundColor=none;strokeColor=#909090;fontColor=#1A1A1A;" vertex="1" parent="AhhlYTa0sZxWNyeGlSW6-8">
          <mxGeometry width="30" height="30" as="geometry">
            <mxRectangle width="30" height="30" as="alternateBounds" />
          </mxGeometry>
        </mxCell>
        <mxCell id="AhhlYTa0sZxWNyeGlSW6-10" value="EMail" style="shape=partialRectangle;connectable=0;fillColor=none;top=0;left=0;bottom=0;right=0;align=left;spacingLeft=6;overflow=hidden;whiteSpace=wrap;html=1;rounded=1;labelBackgroundColor=none;strokeColor=#909090;fontColor=#1A1A1A;" vertex="1" parent="AhhlYTa0sZxWNyeGlSW6-8">
          <mxGeometry x="30" width="150" height="30" as="geometry">
            <mxRectangle width="150" height="30" as="alternateBounds" />
          </mxGeometry>
        </mxCell>
        <mxCell id="AhhlYTa0sZxWNyeGlSW6-11" value="" style="shape=tableRow;horizontal=0;startSize=0;swimlaneHead=0;swimlaneBody=0;fillColor=none;collapsible=0;dropTarget=0;points=[[0,0.5],[1,0.5]];portConstraint=eastwest;top=0;left=0;right=0;bottom=0;rounded=1;labelBackgroundColor=none;strokeColor=#909090;fontColor=#1A1A1A;" vertex="1" parent="AhhlYTa0sZxWNyeGlSW6-1">
          <mxGeometry y="120" width="180" height="30" as="geometry" />
        </mxCell>
        <mxCell id="AhhlYTa0sZxWNyeGlSW6-12" value="" style="shape=partialRectangle;connectable=0;fillColor=none;top=0;left=0;bottom=0;right=0;editable=1;overflow=hidden;whiteSpace=wrap;html=1;rounded=1;labelBackgroundColor=none;strokeColor=#909090;fontColor=#1A1A1A;" vertex="1" parent="AhhlYTa0sZxWNyeGlSW6-11">
          <mxGeometry width="30" height="30" as="geometry">
            <mxRectangle width="30" height="30" as="alternateBounds" />
          </mxGeometry>
        </mxCell>
        <mxCell id="AhhlYTa0sZxWNyeGlSW6-13" value="Age" style="shape=partialRectangle;connectable=0;fillColor=none;top=0;left=0;bottom=0;right=0;align=left;spacingLeft=6;overflow=hidden;whiteSpace=wrap;html=1;rounded=1;labelBackgroundColor=none;strokeColor=#909090;fontColor=#1A1A1A;" vertex="1" parent="AhhlYTa0sZxWNyeGlSW6-11">
          <mxGeometry x="30" width="150" height="30" as="geometry">
            <mxRectangle width="150" height="30" as="alternateBounds" />
          </mxGeometry>
        </mxCell>
        <mxCell id="AhhlYTa0sZxWNyeGlSW6-72" style="shape=tableRow;horizontal=0;startSize=0;swimlaneHead=0;swimlaneBody=0;fillColor=none;collapsible=0;dropTarget=0;points=[[0,0.5],[1,0.5]];portConstraint=eastwest;top=0;left=0;right=0;bottom=0;rounded=1;labelBackgroundColor=none;strokeColor=#909090;fontColor=#1A1A1A;" vertex="1" parent="AhhlYTa0sZxWNyeGlSW6-1">
          <mxGeometry y="150" width="180" height="30" as="geometry" />
        </mxCell>
        <mxCell id="AhhlYTa0sZxWNyeGlSW6-73" style="shape=partialRectangle;connectable=0;fillColor=none;top=0;left=0;bottom=0;right=0;editable=1;overflow=hidden;whiteSpace=wrap;html=1;rounded=1;labelBackgroundColor=none;strokeColor=#909090;fontColor=#1A1A1A;" vertex="1" parent="AhhlYTa0sZxWNyeGlSW6-72">
          <mxGeometry width="30" height="30" as="geometry">
            <mxRectangle width="30" height="30" as="alternateBounds" />
          </mxGeometry>
        </mxCell>
        <mxCell id="AhhlYTa0sZxWNyeGlSW6-74" value="Gender" style="shape=partialRectangle;connectable=0;fillColor=none;top=0;left=0;bottom=0;right=0;align=left;spacingLeft=6;overflow=hidden;whiteSpace=wrap;html=1;rounded=1;labelBackgroundColor=none;strokeColor=#909090;fontColor=#1A1A1A;" vertex="1" parent="AhhlYTa0sZxWNyeGlSW6-72">
          <mxGeometry x="30" width="150" height="30" as="geometry">
            <mxRectangle width="150" height="30" as="alternateBounds" />
          </mxGeometry>
        </mxCell>
        <mxCell id="AhhlYTa0sZxWNyeGlSW6-69" style="shape=tableRow;horizontal=0;startSize=0;swimlaneHead=0;swimlaneBody=0;fillColor=none;collapsible=0;dropTarget=0;points=[[0,0.5],[1,0.5]];portConstraint=eastwest;top=0;left=0;right=0;bottom=0;rounded=1;labelBackgroundColor=none;strokeColor=#909090;fontColor=#1A1A1A;" vertex="1" parent="AhhlYTa0sZxWNyeGlSW6-1">
          <mxGeometry y="180" width="180" height="30" as="geometry" />
        </mxCell>
        <mxCell id="AhhlYTa0sZxWNyeGlSW6-70" style="shape=partialRectangle;connectable=0;fillColor=none;top=0;left=0;bottom=0;right=0;editable=1;overflow=hidden;whiteSpace=wrap;html=1;rounded=1;labelBackgroundColor=none;strokeColor=#909090;fontColor=#1A1A1A;" vertex="1" parent="AhhlYTa0sZxWNyeGlSW6-69">
          <mxGeometry width="30" height="30" as="geometry">
            <mxRectangle width="30" height="30" as="alternateBounds" />
          </mxGeometry>
        </mxCell>
        <mxCell id="AhhlYTa0sZxWNyeGlSW6-71" value="Height_cm" style="shape=partialRectangle;connectable=0;fillColor=none;top=0;left=0;bottom=0;right=0;align=left;spacingLeft=6;overflow=hidden;whiteSpace=wrap;html=1;rounded=1;labelBackgroundColor=none;strokeColor=#909090;fontColor=#1A1A1A;" vertex="1" parent="AhhlYTa0sZxWNyeGlSW6-69">
          <mxGeometry x="30" width="150" height="30" as="geometry">
            <mxRectangle width="150" height="30" as="alternateBounds" />
          </mxGeometry>
        </mxCell>
        <mxCell id="AhhlYTa0sZxWNyeGlSW6-66" style="shape=tableRow;horizontal=0;startSize=0;swimlaneHead=0;swimlaneBody=0;fillColor=none;collapsible=0;dropTarget=0;points=[[0,0.5],[1,0.5]];portConstraint=eastwest;top=0;left=0;right=0;bottom=0;rounded=1;labelBackgroundColor=none;strokeColor=#909090;fontColor=#1A1A1A;" vertex="1" parent="AhhlYTa0sZxWNyeGlSW6-1">
          <mxGeometry y="210" width="180" height="30" as="geometry" />
        </mxCell>
        <mxCell id="AhhlYTa0sZxWNyeGlSW6-67" style="shape=partialRectangle;connectable=0;fillColor=none;top=0;left=0;bottom=0;right=0;editable=1;overflow=hidden;whiteSpace=wrap;html=1;rounded=1;labelBackgroundColor=none;strokeColor=#909090;fontColor=#1A1A1A;" vertex="1" parent="AhhlYTa0sZxWNyeGlSW6-66">
          <mxGeometry width="30" height="30" as="geometry">
            <mxRectangle width="30" height="30" as="alternateBounds" />
          </mxGeometry>
        </mxCell>
        <mxCell id="AhhlYTa0sZxWNyeGlSW6-68" value="Weight_kg" style="shape=partialRectangle;connectable=0;fillColor=none;top=0;left=0;bottom=0;right=0;align=left;spacingLeft=6;overflow=hidden;whiteSpace=wrap;html=1;rounded=1;labelBackgroundColor=none;strokeColor=#909090;fontColor=#1A1A1A;" vertex="1" parent="AhhlYTa0sZxWNyeGlSW6-66">
          <mxGeometry x="30" width="150" height="30" as="geometry">
            <mxRectangle width="150" height="30" as="alternateBounds" />
          </mxGeometry>
        </mxCell>
        <mxCell id="AhhlYTa0sZxWNyeGlSW6-40" value="Workouts" style="shape=table;startSize=30;container=1;collapsible=1;childLayout=tableLayout;fixedRows=1;rowLines=0;fontStyle=1;align=center;resizeLast=1;html=1;whiteSpace=wrap;rounded=1;labelBackgroundColor=none;fillColor=#F5AB50;strokeColor=#909090;fontColor=#1A1A1A;" vertex="1" parent="1">
          <mxGeometry x="320" y="40" width="180" height="180" as="geometry" />
        </mxCell>
        <mxCell id="AhhlYTa0sZxWNyeGlSW6-41" value="" style="shape=tableRow;horizontal=0;startSize=0;swimlaneHead=0;swimlaneBody=0;fillColor=none;collapsible=0;dropTarget=0;points=[[0,0.5],[1,0.5]];portConstraint=eastwest;top=0;left=0;right=0;bottom=0;html=1;rounded=1;labelBackgroundColor=none;strokeColor=#909090;fontColor=#1A1A1A;" vertex="1" parent="AhhlYTa0sZxWNyeGlSW6-40">
          <mxGeometry y="30" width="180" height="30" as="geometry" />
        </mxCell>
        <mxCell id="AhhlYTa0sZxWNyeGlSW6-42" value="PK" style="shape=partialRectangle;connectable=0;fillColor=none;top=0;left=0;bottom=0;right=0;fontStyle=1;overflow=hidden;html=1;whiteSpace=wrap;rounded=1;labelBackgroundColor=none;strokeColor=#909090;fontColor=#1A1A1A;" vertex="1" parent="AhhlYTa0sZxWNyeGlSW6-41">
          <mxGeometry width="60" height="30" as="geometry">
            <mxRectangle width="60" height="30" as="alternateBounds" />
          </mxGeometry>
        </mxCell>
        <mxCell id="AhhlYTa0sZxWNyeGlSW6-43" value="Workout_ID" style="shape=partialRectangle;connectable=0;fillColor=none;top=0;left=0;bottom=0;right=0;align=left;spacingLeft=6;fontStyle=5;overflow=hidden;html=1;whiteSpace=wrap;rounded=1;labelBackgroundColor=none;strokeColor=#909090;fontColor=#1A1A1A;" vertex="1" parent="AhhlYTa0sZxWNyeGlSW6-41">
          <mxGeometry x="60" width="120" height="30" as="geometry">
            <mxRectangle width="120" height="30" as="alternateBounds" />
          </mxGeometry>
        </mxCell>
        <mxCell id="AhhlYTa0sZxWNyeGlSW6-44" value="" style="shape=tableRow;horizontal=0;startSize=0;swimlaneHead=0;swimlaneBody=0;fillColor=none;collapsible=0;dropTarget=0;points=[[0,0.5],[1,0.5]];portConstraint=eastwest;top=0;left=0;right=0;bottom=1;html=1;rounded=1;labelBackgroundColor=none;strokeColor=#909090;fontColor=#1A1A1A;" vertex="1" parent="AhhlYTa0sZxWNyeGlSW6-40">
          <mxGeometry y="60" width="180" height="30" as="geometry" />
        </mxCell>
        <mxCell id="AhhlYTa0sZxWNyeGlSW6-45" value="FK" style="shape=partialRectangle;connectable=0;fillColor=none;top=0;left=0;bottom=0;right=0;fontStyle=1;overflow=hidden;html=1;whiteSpace=wrap;rounded=1;labelBackgroundColor=none;strokeColor=#909090;fontColor=#1A1A1A;" vertex="1" parent="AhhlYTa0sZxWNyeGlSW6-44">
          <mxGeometry width="60" height="30" as="geometry">
            <mxRectangle width="60" height="30" as="alternateBounds" />
          </mxGeometry>
        </mxCell>
        <mxCell id="AhhlYTa0sZxWNyeGlSW6-46" value="User_ID" style="shape=partialRectangle;connectable=0;fillColor=none;top=0;left=0;bottom=0;right=0;align=left;spacingLeft=6;fontStyle=5;overflow=hidden;html=1;whiteSpace=wrap;rounded=1;labelBackgroundColor=none;strokeColor=#909090;fontColor=#1A1A1A;" vertex="1" parent="AhhlYTa0sZxWNyeGlSW6-44">
          <mxGeometry x="60" width="120" height="30" as="geometry">
            <mxRectangle width="120" height="30" as="alternateBounds" />
          </mxGeometry>
        </mxCell>
        <mxCell id="AhhlYTa0sZxWNyeGlSW6-47" value="" style="shape=tableRow;horizontal=0;startSize=0;swimlaneHead=0;swimlaneBody=0;fillColor=none;collapsible=0;dropTarget=0;points=[[0,0.5],[1,0.5]];portConstraint=eastwest;top=0;left=0;right=0;bottom=0;html=1;rounded=1;labelBackgroundColor=none;strokeColor=#909090;fontColor=#1A1A1A;" vertex="1" parent="AhhlYTa0sZxWNyeGlSW6-40">
          <mxGeometry y="90" width="180" height="30" as="geometry" />
        </mxCell>
        <mxCell id="AhhlYTa0sZxWNyeGlSW6-48" value="" style="shape=partialRectangle;connectable=0;fillColor=none;top=0;left=0;bottom=0;right=0;editable=1;overflow=hidden;html=1;whiteSpace=wrap;rounded=1;labelBackgroundColor=none;strokeColor=#909090;fontColor=#1A1A1A;" vertex="1" parent="AhhlYTa0sZxWNyeGlSW6-47">
          <mxGeometry width="60" height="30" as="geometry">
            <mxRectangle width="60" height="30" as="alternateBounds" />
          </mxGeometry>
        </mxCell>
        <mxCell id="AhhlYTa0sZxWNyeGlSW6-49" value="Workout_date" style="shape=partialRectangle;connectable=0;fillColor=none;top=0;left=0;bottom=0;right=0;align=left;spacingLeft=6;overflow=hidden;html=1;whiteSpace=wrap;rounded=1;labelBackgroundColor=none;strokeColor=#909090;fontColor=#1A1A1A;" vertex="1" parent="AhhlYTa0sZxWNyeGlSW6-47">
          <mxGeometry x="60" width="120" height="30" as="geometry">
            <mxRectangle width="120" height="30" as="alternateBounds" />
          </mxGeometry>
        </mxCell>
        <mxCell id="AhhlYTa0sZxWNyeGlSW6-50" value="" style="shape=tableRow;horizontal=0;startSize=0;swimlaneHead=0;swimlaneBody=0;fillColor=none;collapsible=0;dropTarget=0;points=[[0,0.5],[1,0.5]];portConstraint=eastwest;top=0;left=0;right=0;bottom=0;html=1;rounded=1;labelBackgroundColor=none;strokeColor=#909090;fontColor=#1A1A1A;" vertex="1" parent="AhhlYTa0sZxWNyeGlSW6-40">
          <mxGeometry y="120" width="180" height="30" as="geometry" />
        </mxCell>
        <mxCell id="AhhlYTa0sZxWNyeGlSW6-51" value="" style="shape=partialRectangle;connectable=0;fillColor=none;top=0;left=0;bottom=0;right=0;editable=1;overflow=hidden;html=1;whiteSpace=wrap;rounded=1;labelBackgroundColor=none;strokeColor=#909090;fontColor=#1A1A1A;" vertex="1" parent="AhhlYTa0sZxWNyeGlSW6-50">
          <mxGeometry width="60" height="30" as="geometry">
            <mxRectangle width="60" height="30" as="alternateBounds" />
          </mxGeometry>
        </mxCell>
        <mxCell id="AhhlYTa0sZxWNyeGlSW6-52" value="Duration_minutes" style="shape=partialRectangle;connectable=0;fillColor=none;top=0;left=0;bottom=0;right=0;align=left;spacingLeft=6;overflow=hidden;html=1;whiteSpace=wrap;rounded=1;labelBackgroundColor=none;strokeColor=#909090;fontColor=#1A1A1A;" vertex="1" parent="AhhlYTa0sZxWNyeGlSW6-50">
          <mxGeometry x="60" width="120" height="30" as="geometry">
            <mxRectangle width="120" height="30" as="alternateBounds" />
          </mxGeometry>
        </mxCell>
        <mxCell id="AhhlYTa0sZxWNyeGlSW6-76" style="shape=tableRow;horizontal=0;startSize=0;swimlaneHead=0;swimlaneBody=0;fillColor=none;collapsible=0;dropTarget=0;points=[[0,0.5],[1,0.5]];portConstraint=eastwest;top=0;left=0;right=0;bottom=0;html=1;rounded=1;labelBackgroundColor=none;strokeColor=#909090;fontColor=#1A1A1A;" vertex="1" parent="AhhlYTa0sZxWNyeGlSW6-40">
          <mxGeometry y="150" width="180" height="30" as="geometry" />
        </mxCell>
        <mxCell id="AhhlYTa0sZxWNyeGlSW6-77" style="shape=partialRectangle;connectable=0;fillColor=none;top=0;left=0;bottom=0;right=0;editable=1;overflow=hidden;html=1;whiteSpace=wrap;rounded=1;labelBackgroundColor=none;strokeColor=#909090;fontColor=#1A1A1A;" vertex="1" parent="AhhlYTa0sZxWNyeGlSW6-76">
          <mxGeometry width="60" height="30" as="geometry">
            <mxRectangle width="60" height="30" as="alternateBounds" />
          </mxGeometry>
        </mxCell>
        <mxCell id="AhhlYTa0sZxWNyeGlSW6-78" value="Notes" style="shape=partialRectangle;connectable=0;fillColor=none;top=0;left=0;bottom=0;right=0;align=left;spacingLeft=6;overflow=hidden;html=1;whiteSpace=wrap;rounded=1;labelBackgroundColor=none;strokeColor=#909090;fontColor=#1A1A1A;" vertex="1" parent="AhhlYTa0sZxWNyeGlSW6-76">
          <mxGeometry x="60" width="120" height="30" as="geometry">
            <mxRectangle width="120" height="30" as="alternateBounds" />
          </mxGeometry>
        </mxCell>
        <mxCell id="AhhlYTa0sZxWNyeGlSW6-53" value="Exercises" style="shape=table;startSize=30;container=1;collapsible=1;childLayout=tableLayout;fixedRows=1;rowLines=0;fontStyle=1;align=center;resizeLast=1;html=1;rounded=1;labelBackgroundColor=none;fillColor=#F5AB50;strokeColor=#909090;fontColor=#1A1A1A;" vertex="1" parent="1">
          <mxGeometry x="640" y="200" width="200" height="150" as="geometry" />
        </mxCell>
        <mxCell id="AhhlYTa0sZxWNyeGlSW6-54" value="" style="shape=tableRow;horizontal=0;startSize=0;swimlaneHead=0;swimlaneBody=0;fillColor=none;collapsible=0;dropTarget=0;points=[[0,0.5],[1,0.5]];portConstraint=eastwest;top=0;left=0;right=0;bottom=1;rounded=1;labelBackgroundColor=none;strokeColor=#909090;fontColor=#1A1A1A;" vertex="1" parent="AhhlYTa0sZxWNyeGlSW6-53">
          <mxGeometry y="30" width="200" height="30" as="geometry" />
        </mxCell>
        <mxCell id="AhhlYTa0sZxWNyeGlSW6-55" value="PK" style="shape=partialRectangle;connectable=0;fillColor=none;top=0;left=0;bottom=0;right=0;fontStyle=1;overflow=hidden;whiteSpace=wrap;html=1;rounded=1;labelBackgroundColor=none;strokeColor=#909090;fontColor=#1A1A1A;" vertex="1" parent="AhhlYTa0sZxWNyeGlSW6-54">
          <mxGeometry width="30" height="30" as="geometry">
            <mxRectangle width="30" height="30" as="alternateBounds" />
          </mxGeometry>
        </mxCell>
        <mxCell id="AhhlYTa0sZxWNyeGlSW6-56" value="ExerciseID" style="shape=partialRectangle;connectable=0;fillColor=none;top=0;left=0;bottom=0;right=0;align=left;spacingLeft=6;fontStyle=5;overflow=hidden;whiteSpace=wrap;html=1;rounded=1;labelBackgroundColor=none;strokeColor=#909090;fontColor=#1A1A1A;" vertex="1" parent="AhhlYTa0sZxWNyeGlSW6-54">
          <mxGeometry x="30" width="170" height="30" as="geometry">
            <mxRectangle width="170" height="30" as="alternateBounds" />
          </mxGeometry>
        </mxCell>
        <mxCell id="AhhlYTa0sZxWNyeGlSW6-57" value="" style="shape=tableRow;horizontal=0;startSize=0;swimlaneHead=0;swimlaneBody=0;fillColor=none;collapsible=0;dropTarget=0;points=[[0,0.5],[1,0.5]];portConstraint=eastwest;top=0;left=0;right=0;bottom=0;rounded=1;labelBackgroundColor=none;strokeColor=#909090;fontColor=#1A1A1A;" vertex="1" parent="AhhlYTa0sZxWNyeGlSW6-53">
          <mxGeometry y="60" width="200" height="30" as="geometry" />
        </mxCell>
        <mxCell id="AhhlYTa0sZxWNyeGlSW6-58" value="" style="shape=partialRectangle;connectable=0;fillColor=none;top=0;left=0;bottom=0;right=0;editable=1;overflow=hidden;whiteSpace=wrap;html=1;rounded=1;labelBackgroundColor=none;strokeColor=#909090;fontColor=#1A1A1A;" vertex="1" parent="AhhlYTa0sZxWNyeGlSW6-57">
          <mxGeometry width="30" height="30" as="geometry">
            <mxRectangle width="30" height="30" as="alternateBounds" />
          </mxGeometry>
        </mxCell>
        <mxCell id="AhhlYTa0sZxWNyeGlSW6-59" value="Name" style="shape=partialRectangle;connectable=0;fillColor=none;top=0;left=0;bottom=0;right=0;align=left;spacingLeft=6;overflow=hidden;whiteSpace=wrap;html=1;rounded=1;labelBackgroundColor=none;strokeColor=#909090;fontColor=#1A1A1A;" vertex="1" parent="AhhlYTa0sZxWNyeGlSW6-57">
          <mxGeometry x="30" width="170" height="30" as="geometry">
            <mxRectangle width="170" height="30" as="alternateBounds" />
          </mxGeometry>
        </mxCell>
        <mxCell id="AhhlYTa0sZxWNyeGlSW6-60" value="" style="shape=tableRow;horizontal=0;startSize=0;swimlaneHead=0;swimlaneBody=0;fillColor=none;collapsible=0;dropTarget=0;points=[[0,0.5],[1,0.5]];portConstraint=eastwest;top=0;left=0;right=0;bottom=0;rounded=1;labelBackgroundColor=none;strokeColor=#909090;fontColor=#1A1A1A;" vertex="1" parent="AhhlYTa0sZxWNyeGlSW6-53">
          <mxGeometry y="90" width="200" height="30" as="geometry" />
        </mxCell>
        <mxCell id="AhhlYTa0sZxWNyeGlSW6-61" value="" style="shape=partialRectangle;connectable=0;fillColor=none;top=0;left=0;bottom=0;right=0;editable=1;overflow=hidden;whiteSpace=wrap;html=1;rounded=1;labelBackgroundColor=none;strokeColor=#909090;fontColor=#1A1A1A;" vertex="1" parent="AhhlYTa0sZxWNyeGlSW6-60">
          <mxGeometry width="30" height="30" as="geometry">
            <mxRectangle width="30" height="30" as="alternateBounds" />
          </mxGeometry>
        </mxCell>
        <mxCell id="AhhlYTa0sZxWNyeGlSW6-62" value="Category" style="shape=partialRectangle;connectable=0;fillColor=none;top=0;left=0;bottom=0;right=0;align=left;spacingLeft=6;overflow=hidden;whiteSpace=wrap;html=1;rounded=1;labelBackgroundColor=none;strokeColor=#909090;fontColor=#1A1A1A;" vertex="1" parent="AhhlYTa0sZxWNyeGlSW6-60">
          <mxGeometry x="30" width="170" height="30" as="geometry">
            <mxRectangle width="170" height="30" as="alternateBounds" />
          </mxGeometry>
        </mxCell>
        <mxCell id="AhhlYTa0sZxWNyeGlSW6-63" value="" style="shape=tableRow;horizontal=0;startSize=0;swimlaneHead=0;swimlaneBody=0;fillColor=none;collapsible=0;dropTarget=0;points=[[0,0.5],[1,0.5]];portConstraint=eastwest;top=0;left=0;right=0;bottom=0;rounded=1;labelBackgroundColor=none;strokeColor=#909090;fontColor=#1A1A1A;" vertex="1" parent="AhhlYTa0sZxWNyeGlSW6-53">
          <mxGeometry y="120" width="200" height="30" as="geometry" />
        </mxCell>
        <mxCell id="AhhlYTa0sZxWNyeGlSW6-64" value="" style="shape=partialRectangle;connectable=0;fillColor=none;top=0;left=0;bottom=0;right=0;editable=1;overflow=hidden;whiteSpace=wrap;html=1;rounded=1;labelBackgroundColor=none;strokeColor=#909090;fontColor=#1A1A1A;" vertex="1" parent="AhhlYTa0sZxWNyeGlSW6-63">
          <mxGeometry width="30" height="30" as="geometry">
            <mxRectangle width="30" height="30" as="alternateBounds" />
          </mxGeometry>
        </mxCell>
        <mxCell id="AhhlYTa0sZxWNyeGlSW6-65" value="Calories_burned_per_minute" style="shape=partialRectangle;connectable=0;fillColor=none;top=0;left=0;bottom=0;right=0;align=left;spacingLeft=6;overflow=hidden;whiteSpace=wrap;html=1;rounded=1;labelBackgroundColor=none;strokeColor=#909090;fontColor=#1A1A1A;" vertex="1" parent="AhhlYTa0sZxWNyeGlSW6-63">
          <mxGeometry x="30" width="170" height="30" as="geometry">
            <mxRectangle width="170" height="30" as="alternateBounds" />
          </mxGeometry>
        </mxCell>
        <mxCell id="AhhlYTa0sZxWNyeGlSW6-79" value="Workout_Exercise" style="shape=table;startSize=30;container=1;collapsible=1;childLayout=tableLayout;fixedRows=1;rowLines=0;fontStyle=1;align=center;resizeLast=1;html=1;whiteSpace=wrap;rounded=1;labelBackgroundColor=none;fillColor=#F5AB50;strokeColor=#909090;fontColor=#1A1A1A;" vertex="1" parent="1">
          <mxGeometry x="320" y="280" width="180" height="120" as="geometry" />
        </mxCell>
        <mxCell id="AhhlYTa0sZxWNyeGlSW6-80" value="" style="shape=tableRow;horizontal=0;startSize=0;swimlaneHead=0;swimlaneBody=0;fillColor=none;collapsible=0;dropTarget=0;points=[[0,0.5],[1,0.5]];portConstraint=eastwest;top=0;left=0;right=0;bottom=0;html=1;rounded=1;labelBackgroundColor=none;strokeColor=#909090;fontColor=#1A1A1A;" vertex="1" parent="AhhlYTa0sZxWNyeGlSW6-79">
          <mxGeometry y="30" width="180" height="30" as="geometry" />
        </mxCell>
        <mxCell id="AhhlYTa0sZxWNyeGlSW6-81" value="PK,FK1" style="shape=partialRectangle;connectable=0;fillColor=none;top=0;left=0;bottom=0;right=0;fontStyle=1;overflow=hidden;html=1;whiteSpace=wrap;rounded=1;labelBackgroundColor=none;strokeColor=#909090;fontColor=#1A1A1A;" vertex="1" parent="AhhlYTa0sZxWNyeGlSW6-80">
          <mxGeometry width="60" height="30" as="geometry">
            <mxRectangle width="60" height="30" as="alternateBounds" />
          </mxGeometry>
        </mxCell>
        <mxCell id="AhhlYTa0sZxWNyeGlSW6-82" value="Workout_ID" style="shape=partialRectangle;connectable=0;fillColor=none;top=0;left=0;bottom=0;right=0;align=left;spacingLeft=6;fontStyle=5;overflow=hidden;html=1;whiteSpace=wrap;rounded=1;labelBackgroundColor=none;strokeColor=#909090;fontColor=#1A1A1A;" vertex="1" parent="AhhlYTa0sZxWNyeGlSW6-80">
          <mxGeometry x="60" width="120" height="30" as="geometry">
            <mxRectangle width="120" height="30" as="alternateBounds" />
          </mxGeometry>
        </mxCell>
        <mxCell id="AhhlYTa0sZxWNyeGlSW6-83" value="" style="shape=tableRow;horizontal=0;startSize=0;swimlaneHead=0;swimlaneBody=0;fillColor=none;collapsible=0;dropTarget=0;points=[[0,0.5],[1,0.5]];portConstraint=eastwest;top=0;left=0;right=0;bottom=1;html=1;rounded=1;labelBackgroundColor=none;strokeColor=#909090;fontColor=#1A1A1A;" vertex="1" parent="AhhlYTa0sZxWNyeGlSW6-79">
          <mxGeometry y="60" width="180" height="30" as="geometry" />
        </mxCell>
        <mxCell id="AhhlYTa0sZxWNyeGlSW6-84" value="PK,FK2" style="shape=partialRectangle;connectable=0;fillColor=none;top=0;left=0;bottom=0;right=0;fontStyle=1;overflow=hidden;html=1;whiteSpace=wrap;rounded=1;labelBackgroundColor=none;strokeColor=#909090;fontColor=#1A1A1A;" vertex="1" parent="AhhlYTa0sZxWNyeGlSW6-83">
          <mxGeometry width="60" height="30" as="geometry">
            <mxRectangle width="60" height="30" as="alternateBounds" />
          </mxGeometry>
        </mxCell>
        <mxCell id="AhhlYTa0sZxWNyeGlSW6-85" value="Exercise_ID" style="shape=partialRectangle;connectable=0;fillColor=none;top=0;left=0;bottom=0;right=0;align=left;spacingLeft=6;fontStyle=5;overflow=hidden;html=1;whiteSpace=wrap;rounded=1;labelBackgroundColor=none;strokeColor=#909090;fontColor=#1A1A1A;" vertex="1" parent="AhhlYTa0sZxWNyeGlSW6-83">
          <mxGeometry x="60" width="120" height="30" as="geometry">
            <mxRectangle width="120" height="30" as="alternateBounds" />
          </mxGeometry>
        </mxCell>
        <mxCell id="AhhlYTa0sZxWNyeGlSW6-86" value="" style="shape=tableRow;horizontal=0;startSize=0;swimlaneHead=0;swimlaneBody=0;fillColor=none;collapsible=0;dropTarget=0;points=[[0,0.5],[1,0.5]];portConstraint=eastwest;top=0;left=0;right=0;bottom=0;html=1;rounded=1;labelBackgroundColor=none;strokeColor=#909090;fontColor=#1A1A1A;" vertex="1" parent="AhhlYTa0sZxWNyeGlSW6-79">
          <mxGeometry y="90" width="180" height="30" as="geometry" />
        </mxCell>
        <mxCell id="AhhlYTa0sZxWNyeGlSW6-87" value="" style="shape=partialRectangle;connectable=0;fillColor=none;top=0;left=0;bottom=0;right=0;editable=1;overflow=hidden;html=1;whiteSpace=wrap;rounded=1;labelBackgroundColor=none;strokeColor=#909090;fontColor=#1A1A1A;" vertex="1" parent="AhhlYTa0sZxWNyeGlSW6-86">
          <mxGeometry width="60" height="30" as="geometry">
            <mxRectangle width="60" height="30" as="alternateBounds" />
          </mxGeometry>
        </mxCell>
        <mxCell id="AhhlYTa0sZxWNyeGlSW6-88" value="Duration_minutese" style="shape=partialRectangle;connectable=0;fillColor=none;top=0;left=0;bottom=0;right=0;align=left;spacingLeft=6;overflow=hidden;html=1;whiteSpace=wrap;rounded=1;labelBackgroundColor=none;strokeColor=#909090;fontColor=#1A1A1A;" vertex="1" parent="AhhlYTa0sZxWNyeGlSW6-86">
          <mxGeometry x="60" width="120" height="30" as="geometry">
            <mxRectangle width="120" height="30" as="alternateBounds" />
          </mxGeometry>
        </mxCell>
        <mxCell id="AhhlYTa0sZxWNyeGlSW6-92" value="HealthMetrics" style="shape=table;startSize=30;container=1;collapsible=1;childLayout=tableLayout;fixedRows=1;rowLines=0;fontStyle=1;align=center;resizeLast=1;html=1;whiteSpace=wrap;rounded=1;labelBackgroundColor=none;fillColor=#F5AB50;strokeColor=#909090;fontColor=#1A1A1A;" vertex="1" parent="1">
          <mxGeometry x="510" y="400" width="180" height="200" as="geometry" />
        </mxCell>
        <mxCell id="AhhlYTa0sZxWNyeGlSW6-93" value="" style="shape=tableRow;horizontal=0;startSize=0;swimlaneHead=0;swimlaneBody=0;fillColor=none;collapsible=0;dropTarget=0;points=[[0,0.5],[1,0.5]];portConstraint=eastwest;top=0;left=0;right=0;bottom=0;html=1;rounded=1;labelBackgroundColor=none;strokeColor=#909090;fontColor=#1A1A1A;" vertex="1" parent="AhhlYTa0sZxWNyeGlSW6-92">
          <mxGeometry y="30" width="180" height="30" as="geometry" />
        </mxCell>
        <mxCell id="AhhlYTa0sZxWNyeGlSW6-94" value="PK," style="shape=partialRectangle;connectable=0;fillColor=none;top=0;left=0;bottom=0;right=0;fontStyle=1;overflow=hidden;html=1;whiteSpace=wrap;rounded=1;labelBackgroundColor=none;strokeColor=#909090;fontColor=#1A1A1A;" vertex="1" parent="AhhlYTa0sZxWNyeGlSW6-93">
          <mxGeometry width="60" height="30" as="geometry">
            <mxRectangle width="60" height="30" as="alternateBounds" />
          </mxGeometry>
        </mxCell>
        <mxCell id="AhhlYTa0sZxWNyeGlSW6-95" value="Metric_ID" style="shape=partialRectangle;connectable=0;fillColor=none;top=0;left=0;bottom=0;right=0;align=left;spacingLeft=6;fontStyle=5;overflow=hidden;html=1;whiteSpace=wrap;rounded=1;labelBackgroundColor=none;strokeColor=#909090;fontColor=#1A1A1A;" vertex="1" parent="AhhlYTa0sZxWNyeGlSW6-93">
          <mxGeometry x="60" width="120" height="30" as="geometry">
            <mxRectangle width="120" height="30" as="alternateBounds" />
          </mxGeometry>
        </mxCell>
        <mxCell id="AhhlYTa0sZxWNyeGlSW6-96" value="" style="shape=tableRow;horizontal=0;startSize=0;swimlaneHead=0;swimlaneBody=0;fillColor=none;collapsible=0;dropTarget=0;points=[[0,0.5],[1,0.5]];portConstraint=eastwest;top=0;left=0;right=0;bottom=1;html=1;rounded=1;labelBackgroundColor=none;strokeColor=#909090;fontColor=#1A1A1A;" vertex="1" parent="AhhlYTa0sZxWNyeGlSW6-92">
          <mxGeometry y="60" width="180" height="30" as="geometry" />
        </mxCell>
        <mxCell id="AhhlYTa0sZxWNyeGlSW6-97" value="FK" style="shape=partialRectangle;connectable=0;fillColor=none;top=0;left=0;bottom=0;right=0;fontStyle=1;overflow=hidden;html=1;whiteSpace=wrap;rounded=1;labelBackgroundColor=none;strokeColor=#909090;fontColor=#1A1A1A;" vertex="1" parent="AhhlYTa0sZxWNyeGlSW6-96">
          <mxGeometry width="60" height="30" as="geometry">
            <mxRectangle width="60" height="30" as="alternateBounds" />
          </mxGeometry>
        </mxCell>
        <mxCell id="AhhlYTa0sZxWNyeGlSW6-98" value="User_ID" style="shape=partialRectangle;connectable=0;fillColor=none;top=0;left=0;bottom=0;right=0;align=left;spacingLeft=6;fontStyle=5;overflow=hidden;html=1;whiteSpace=wrap;rounded=1;labelBackgroundColor=none;strokeColor=#909090;fontColor=#1A1A1A;" vertex="1" parent="AhhlYTa0sZxWNyeGlSW6-96">
          <mxGeometry x="60" width="120" height="30" as="geometry">
            <mxRectangle width="120" height="30" as="alternateBounds" />
          </mxGeometry>
        </mxCell>
        <mxCell id="AhhlYTa0sZxWNyeGlSW6-99" value="" style="shape=tableRow;horizontal=0;startSize=0;swimlaneHead=0;swimlaneBody=0;fillColor=none;collapsible=0;dropTarget=0;points=[[0,0.5],[1,0.5]];portConstraint=eastwest;top=0;left=0;right=0;bottom=0;html=1;rounded=1;labelBackgroundColor=none;strokeColor=#909090;fontColor=#1A1A1A;" vertex="1" parent="AhhlYTa0sZxWNyeGlSW6-92">
          <mxGeometry y="90" width="180" height="30" as="geometry" />
        </mxCell>
        <mxCell id="AhhlYTa0sZxWNyeGlSW6-100" value="" style="shape=partialRectangle;connectable=0;fillColor=none;top=0;left=0;bottom=0;right=0;editable=1;overflow=hidden;html=1;whiteSpace=wrap;rounded=1;labelBackgroundColor=none;strokeColor=#909090;fontColor=#1A1A1A;" vertex="1" parent="AhhlYTa0sZxWNyeGlSW6-99">
          <mxGeometry width="60" height="30" as="geometry">
            <mxRectangle width="60" height="30" as="alternateBounds" />
          </mxGeometry>
        </mxCell>
        <mxCell id="AhhlYTa0sZxWNyeGlSW6-101" value="Date" style="shape=partialRectangle;connectable=0;fillColor=none;top=0;left=0;bottom=0;right=0;align=left;spacingLeft=6;overflow=hidden;html=1;whiteSpace=wrap;rounded=1;labelBackgroundColor=none;strokeColor=#909090;fontColor=#1A1A1A;" vertex="1" parent="AhhlYTa0sZxWNyeGlSW6-99">
          <mxGeometry x="60" width="120" height="30" as="geometry">
            <mxRectangle width="120" height="30" as="alternateBounds" />
          </mxGeometry>
        </mxCell>
        <mxCell id="AhhlYTa0sZxWNyeGlSW6-102" value="" style="shape=tableRow;horizontal=0;startSize=0;swimlaneHead=0;swimlaneBody=0;fillColor=none;collapsible=0;dropTarget=0;points=[[0,0.5],[1,0.5]];portConstraint=eastwest;top=0;left=0;right=0;bottom=0;html=1;rounded=1;labelBackgroundColor=none;strokeColor=#909090;fontColor=#1A1A1A;" vertex="1" parent="AhhlYTa0sZxWNyeGlSW6-92">
          <mxGeometry y="120" width="180" height="30" as="geometry" />
        </mxCell>
        <mxCell id="AhhlYTa0sZxWNyeGlSW6-103" value="" style="shape=partialRectangle;connectable=0;fillColor=none;top=0;left=0;bottom=0;right=0;editable=1;overflow=hidden;html=1;whiteSpace=wrap;rounded=1;labelBackgroundColor=none;strokeColor=#909090;fontColor=#1A1A1A;" vertex="1" parent="AhhlYTa0sZxWNyeGlSW6-102">
          <mxGeometry width="60" height="30" as="geometry">
            <mxRectangle width="60" height="30" as="alternateBounds" />
          </mxGeometry>
        </mxCell>
        <mxCell id="AhhlYTa0sZxWNyeGlSW6-104" value="Weight_kg" style="shape=partialRectangle;connectable=0;fillColor=none;top=0;left=0;bottom=0;right=0;align=left;spacingLeft=6;overflow=hidden;html=1;whiteSpace=wrap;rounded=1;labelBackgroundColor=none;strokeColor=#909090;fontColor=#1A1A1A;" vertex="1" parent="AhhlYTa0sZxWNyeGlSW6-102">
          <mxGeometry x="60" width="120" height="30" as="geometry">
            <mxRectangle width="120" height="30" as="alternateBounds" />
          </mxGeometry>
        </mxCell>
        <mxCell id="AhhlYTa0sZxWNyeGlSW6-105" style="shape=tableRow;horizontal=0;startSize=0;swimlaneHead=0;swimlaneBody=0;fillColor=none;collapsible=0;dropTarget=0;points=[[0,0.5],[1,0.5]];portConstraint=eastwest;top=0;left=0;right=0;bottom=0;html=1;rounded=1;labelBackgroundColor=none;strokeColor=#909090;fontColor=#1A1A1A;" vertex="1" parent="AhhlYTa0sZxWNyeGlSW6-92">
          <mxGeometry y="150" width="180" height="30" as="geometry" />
        </mxCell>
        <mxCell id="AhhlYTa0sZxWNyeGlSW6-106" style="shape=partialRectangle;connectable=0;fillColor=none;top=0;left=0;bottom=0;right=0;editable=1;overflow=hidden;html=1;whiteSpace=wrap;rounded=1;labelBackgroundColor=none;strokeColor=#909090;fontColor=#1A1A1A;" vertex="1" parent="AhhlYTa0sZxWNyeGlSW6-105">
          <mxGeometry width="60" height="30" as="geometry">
            <mxRectangle width="60" height="30" as="alternateBounds" />
          </mxGeometry>
        </mxCell>
        <mxCell id="AhhlYTa0sZxWNyeGlSW6-107" value="Heart_Rate" style="shape=partialRectangle;connectable=0;fillColor=none;top=0;left=0;bottom=0;right=0;align=left;spacingLeft=6;overflow=hidden;html=1;whiteSpace=wrap;rounded=1;labelBackgroundColor=none;strokeColor=#909090;fontColor=#1A1A1A;" vertex="1" parent="AhhlYTa0sZxWNyeGlSW6-105">
          <mxGeometry x="60" width="120" height="30" as="geometry">
            <mxRectangle width="120" height="30" as="alternateBounds" />
          </mxGeometry>
        </mxCell>
        <mxCell id="AhhlYTa0sZxWNyeGlSW6-108" style="shape=tableRow;horizontal=0;startSize=0;swimlaneHead=0;swimlaneBody=0;fillColor=none;collapsible=0;dropTarget=0;points=[[0,0.5],[1,0.5]];portConstraint=eastwest;top=0;left=0;right=0;bottom=0;html=1;rounded=1;labelBackgroundColor=none;strokeColor=#909090;fontColor=#1A1A1A;" vertex="1" parent="AhhlYTa0sZxWNyeGlSW6-92">
          <mxGeometry y="180" width="180" height="20" as="geometry" />
        </mxCell>
        <mxCell id="AhhlYTa0sZxWNyeGlSW6-109" style="shape=partialRectangle;connectable=0;fillColor=none;top=0;left=0;bottom=0;right=0;editable=1;overflow=hidden;html=1;whiteSpace=wrap;rounded=1;labelBackgroundColor=none;strokeColor=#909090;fontColor=#1A1A1A;" vertex="1" parent="AhhlYTa0sZxWNyeGlSW6-108">
          <mxGeometry width="60" height="20" as="geometry">
            <mxRectangle width="60" height="20" as="alternateBounds" />
          </mxGeometry>
        </mxCell>
        <mxCell id="AhhlYTa0sZxWNyeGlSW6-110" value="Sleep_Hours" style="shape=partialRectangle;connectable=0;fillColor=none;top=0;left=0;bottom=0;right=0;align=left;spacingLeft=6;overflow=hidden;html=1;whiteSpace=wrap;rounded=1;labelBackgroundColor=none;strokeColor=#909090;fontColor=#1A1A1A;" vertex="1" parent="AhhlYTa0sZxWNyeGlSW6-108">
          <mxGeometry x="60" width="120" height="20" as="geometry">
            <mxRectangle width="120" height="20" as="alternateBounds" />
          </mxGeometry>
        </mxCell>
        <mxCell id="AhhlYTa0sZxWNyeGlSW6-111" value="Goals" style="shape=table;startSize=30;container=1;collapsible=1;childLayout=tableLayout;fixedRows=1;rowLines=0;fontStyle=1;align=center;resizeLast=1;html=1;whiteSpace=wrap;rounded=1;labelBackgroundColor=none;fillColor=#F5AB50;strokeColor=#909090;fontColor=#1A1A1A;" vertex="1" parent="1">
          <mxGeometry x="320" y="600" width="180" height="210" as="geometry" />
        </mxCell>
        <mxCell id="AhhlYTa0sZxWNyeGlSW6-112" value="" style="shape=tableRow;horizontal=0;startSize=0;swimlaneHead=0;swimlaneBody=0;fillColor=none;collapsible=0;dropTarget=0;points=[[0,0.5],[1,0.5]];portConstraint=eastwest;top=0;left=0;right=0;bottom=0;html=1;rounded=1;labelBackgroundColor=none;strokeColor=#909090;fontColor=#1A1A1A;" vertex="1" parent="AhhlYTa0sZxWNyeGlSW6-111">
          <mxGeometry y="30" width="180" height="30" as="geometry" />
        </mxCell>
        <mxCell id="AhhlYTa0sZxWNyeGlSW6-113" value="PK" style="shape=partialRectangle;connectable=0;fillColor=none;top=0;left=0;bottom=0;right=0;fontStyle=1;overflow=hidden;html=1;whiteSpace=wrap;rounded=1;labelBackgroundColor=none;strokeColor=#909090;fontColor=#1A1A1A;" vertex="1" parent="AhhlYTa0sZxWNyeGlSW6-112">
          <mxGeometry width="60" height="30" as="geometry">
            <mxRectangle width="60" height="30" as="alternateBounds" />
          </mxGeometry>
        </mxCell>
        <mxCell id="AhhlYTa0sZxWNyeGlSW6-114" value="Goal_ID" style="shape=partialRectangle;connectable=0;fillColor=none;top=0;left=0;bottom=0;right=0;align=left;spacingLeft=6;fontStyle=5;overflow=hidden;html=1;whiteSpace=wrap;rounded=1;labelBackgroundColor=none;strokeColor=#909090;fontColor=#1A1A1A;" vertex="1" parent="AhhlYTa0sZxWNyeGlSW6-112">
          <mxGeometry x="60" width="120" height="30" as="geometry">
            <mxRectangle width="120" height="30" as="alternateBounds" />
          </mxGeometry>
        </mxCell>
        <mxCell id="AhhlYTa0sZxWNyeGlSW6-115" value="" style="shape=tableRow;horizontal=0;startSize=0;swimlaneHead=0;swimlaneBody=0;fillColor=none;collapsible=0;dropTarget=0;points=[[0,0.5],[1,0.5]];portConstraint=eastwest;top=0;left=0;right=0;bottom=1;html=1;rounded=1;labelBackgroundColor=none;strokeColor=#909090;fontColor=#1A1A1A;" vertex="1" parent="AhhlYTa0sZxWNyeGlSW6-111">
          <mxGeometry y="60" width="180" height="30" as="geometry" />
        </mxCell>
        <mxCell id="AhhlYTa0sZxWNyeGlSW6-116" value="FK" style="shape=partialRectangle;connectable=0;fillColor=none;top=0;left=0;bottom=0;right=0;fontStyle=1;overflow=hidden;html=1;whiteSpace=wrap;rounded=1;labelBackgroundColor=none;strokeColor=#909090;fontColor=#1A1A1A;" vertex="1" parent="AhhlYTa0sZxWNyeGlSW6-115">
          <mxGeometry width="60" height="30" as="geometry">
            <mxRectangle width="60" height="30" as="alternateBounds" />
          </mxGeometry>
        </mxCell>
        <mxCell id="AhhlYTa0sZxWNyeGlSW6-117" value="User_ID" style="shape=partialRectangle;connectable=0;fillColor=none;top=0;left=0;bottom=0;right=0;align=left;spacingLeft=6;fontStyle=5;overflow=hidden;html=1;whiteSpace=wrap;rounded=1;labelBackgroundColor=none;strokeColor=#909090;fontColor=#1A1A1A;" vertex="1" parent="AhhlYTa0sZxWNyeGlSW6-115">
          <mxGeometry x="60" width="120" height="30" as="geometry">
            <mxRectangle width="120" height="30" as="alternateBounds" />
          </mxGeometry>
        </mxCell>
        <mxCell id="AhhlYTa0sZxWNyeGlSW6-118" value="" style="shape=tableRow;horizontal=0;startSize=0;swimlaneHead=0;swimlaneBody=0;fillColor=none;collapsible=0;dropTarget=0;points=[[0,0.5],[1,0.5]];portConstraint=eastwest;top=0;left=0;right=0;bottom=0;html=1;rounded=1;labelBackgroundColor=none;strokeColor=#909090;fontColor=#1A1A1A;" vertex="1" parent="AhhlYTa0sZxWNyeGlSW6-111">
          <mxGeometry y="90" width="180" height="30" as="geometry" />
        </mxCell>
        <mxCell id="AhhlYTa0sZxWNyeGlSW6-119" value="" style="shape=partialRectangle;connectable=0;fillColor=none;top=0;left=0;bottom=0;right=0;editable=1;overflow=hidden;html=1;whiteSpace=wrap;rounded=1;labelBackgroundColor=none;strokeColor=#909090;fontColor=#1A1A1A;" vertex="1" parent="AhhlYTa0sZxWNyeGlSW6-118">
          <mxGeometry width="60" height="30" as="geometry">
            <mxRectangle width="60" height="30" as="alternateBounds" />
          </mxGeometry>
        </mxCell>
        <mxCell id="AhhlYTa0sZxWNyeGlSW6-120" value="Type" style="shape=partialRectangle;connectable=0;fillColor=none;top=0;left=0;bottom=0;right=0;align=left;spacingLeft=6;overflow=hidden;html=1;whiteSpace=wrap;rounded=1;labelBackgroundColor=none;strokeColor=#909090;fontColor=#1A1A1A;" vertex="1" parent="AhhlYTa0sZxWNyeGlSW6-118">
          <mxGeometry x="60" width="120" height="30" as="geometry">
            <mxRectangle width="120" height="30" as="alternateBounds" />
          </mxGeometry>
        </mxCell>
        <mxCell id="AhhlYTa0sZxWNyeGlSW6-121" value="" style="shape=tableRow;horizontal=0;startSize=0;swimlaneHead=0;swimlaneBody=0;fillColor=none;collapsible=0;dropTarget=0;points=[[0,0.5],[1,0.5]];portConstraint=eastwest;top=0;left=0;right=0;bottom=0;html=1;rounded=1;labelBackgroundColor=none;strokeColor=#909090;fontColor=#1A1A1A;" vertex="1" parent="AhhlYTa0sZxWNyeGlSW6-111">
          <mxGeometry y="120" width="180" height="30" as="geometry" />
        </mxCell>
        <mxCell id="AhhlYTa0sZxWNyeGlSW6-122" value="" style="shape=partialRectangle;connectable=0;fillColor=none;top=0;left=0;bottom=0;right=0;editable=1;overflow=hidden;html=1;whiteSpace=wrap;rounded=1;labelBackgroundColor=none;strokeColor=#909090;fontColor=#1A1A1A;" vertex="1" parent="AhhlYTa0sZxWNyeGlSW6-121">
          <mxGeometry width="60" height="30" as="geometry">
            <mxRectangle width="60" height="30" as="alternateBounds" />
          </mxGeometry>
        </mxCell>
        <mxCell id="AhhlYTa0sZxWNyeGlSW6-123" value="Target" style="shape=partialRectangle;connectable=0;fillColor=none;top=0;left=0;bottom=0;right=0;align=left;spacingLeft=6;overflow=hidden;html=1;whiteSpace=wrap;rounded=1;labelBackgroundColor=none;strokeColor=#909090;fontColor=#1A1A1A;" vertex="1" parent="AhhlYTa0sZxWNyeGlSW6-121">
          <mxGeometry x="60" width="120" height="30" as="geometry">
            <mxRectangle width="120" height="30" as="alternateBounds" />
          </mxGeometry>
        </mxCell>
        <mxCell id="AhhlYTa0sZxWNyeGlSW6-165" style="shape=tableRow;horizontal=0;startSize=0;swimlaneHead=0;swimlaneBody=0;fillColor=none;collapsible=0;dropTarget=0;points=[[0,0.5],[1,0.5]];portConstraint=eastwest;top=0;left=0;right=0;bottom=0;html=1;rounded=1;labelBackgroundColor=none;strokeColor=#909090;fontColor=#1A1A1A;" vertex="1" parent="AhhlYTa0sZxWNyeGlSW6-111">
          <mxGeometry y="150" width="180" height="30" as="geometry" />
        </mxCell>
        <mxCell id="AhhlYTa0sZxWNyeGlSW6-166" style="shape=partialRectangle;connectable=0;fillColor=none;top=0;left=0;bottom=0;right=0;editable=1;overflow=hidden;html=1;whiteSpace=wrap;rounded=1;labelBackgroundColor=none;strokeColor=#909090;fontColor=#1A1A1A;" vertex="1" parent="AhhlYTa0sZxWNyeGlSW6-165">
          <mxGeometry width="60" height="30" as="geometry">
            <mxRectangle width="60" height="30" as="alternateBounds" />
          </mxGeometry>
        </mxCell>
        <mxCell id="AhhlYTa0sZxWNyeGlSW6-167" value="Start_Date" style="shape=partialRectangle;connectable=0;fillColor=none;top=0;left=0;bottom=0;right=0;align=left;spacingLeft=6;overflow=hidden;html=1;whiteSpace=wrap;rounded=1;labelBackgroundColor=none;strokeColor=#909090;fontColor=#1A1A1A;" vertex="1" parent="AhhlYTa0sZxWNyeGlSW6-165">
          <mxGeometry x="60" width="120" height="30" as="geometry">
            <mxRectangle width="120" height="30" as="alternateBounds" />
          </mxGeometry>
        </mxCell>
        <mxCell id="AhhlYTa0sZxWNyeGlSW6-168" style="shape=tableRow;horizontal=0;startSize=0;swimlaneHead=0;swimlaneBody=0;fillColor=none;collapsible=0;dropTarget=0;points=[[0,0.5],[1,0.5]];portConstraint=eastwest;top=0;left=0;right=0;bottom=0;html=1;rounded=1;labelBackgroundColor=none;strokeColor=#909090;fontColor=#1A1A1A;" vertex="1" parent="AhhlYTa0sZxWNyeGlSW6-111">
          <mxGeometry y="180" width="180" height="30" as="geometry" />
        </mxCell>
        <mxCell id="AhhlYTa0sZxWNyeGlSW6-169" style="shape=partialRectangle;connectable=0;fillColor=none;top=0;left=0;bottom=0;right=0;editable=1;overflow=hidden;html=1;whiteSpace=wrap;rounded=1;labelBackgroundColor=none;strokeColor=#909090;fontColor=#1A1A1A;" vertex="1" parent="AhhlYTa0sZxWNyeGlSW6-168">
          <mxGeometry width="60" height="30" as="geometry">
            <mxRectangle width="60" height="30" as="alternateBounds" />
          </mxGeometry>
        </mxCell>
        <mxCell id="AhhlYTa0sZxWNyeGlSW6-170" value="End_Date" style="shape=partialRectangle;connectable=0;fillColor=none;top=0;left=0;bottom=0;right=0;align=left;spacingLeft=6;overflow=hidden;html=1;whiteSpace=wrap;rounded=1;labelBackgroundColor=none;strokeColor=#909090;fontColor=#1A1A1A;" vertex="1" parent="AhhlYTa0sZxWNyeGlSW6-168">
          <mxGeometry x="60" width="120" height="30" as="geometry">
            <mxRectangle width="120" height="30" as="alternateBounds" />
          </mxGeometry>
        </mxCell>
        <mxCell id="AhhlYTa0sZxWNyeGlSW6-171" value="DietPlans" style="shape=table;startSize=30;container=1;collapsible=1;childLayout=tableLayout;fixedRows=1;rowLines=0;fontStyle=1;align=center;resizeLast=1;html=1;whiteSpace=wrap;rounded=1;labelBackgroundColor=none;fillColor=#F5AB50;strokeColor=#909090;fontColor=#1A1A1A;" vertex="1" parent="1">
          <mxGeometry x="320" y="840" width="180" height="210" as="geometry" />
        </mxCell>
        <mxCell id="AhhlYTa0sZxWNyeGlSW6-172" value="" style="shape=tableRow;horizontal=0;startSize=0;swimlaneHead=0;swimlaneBody=0;fillColor=none;collapsible=0;dropTarget=0;points=[[0,0.5],[1,0.5]];portConstraint=eastwest;top=0;left=0;right=0;bottom=0;html=1;rounded=1;labelBackgroundColor=none;strokeColor=#909090;fontColor=#1A1A1A;" vertex="1" parent="AhhlYTa0sZxWNyeGlSW6-171">
          <mxGeometry y="30" width="180" height="30" as="geometry" />
        </mxCell>
        <mxCell id="AhhlYTa0sZxWNyeGlSW6-173" value="PK" style="shape=partialRectangle;connectable=0;fillColor=none;top=0;left=0;bottom=0;right=0;fontStyle=1;overflow=hidden;html=1;whiteSpace=wrap;rounded=1;labelBackgroundColor=none;strokeColor=#909090;fontColor=#1A1A1A;" vertex="1" parent="AhhlYTa0sZxWNyeGlSW6-172">
          <mxGeometry width="60" height="30" as="geometry">
            <mxRectangle width="60" height="30" as="alternateBounds" />
          </mxGeometry>
        </mxCell>
        <mxCell id="AhhlYTa0sZxWNyeGlSW6-174" value="Diet_Id" style="shape=partialRectangle;connectable=0;fillColor=none;top=0;left=0;bottom=0;right=0;align=left;spacingLeft=6;fontStyle=5;overflow=hidden;html=1;whiteSpace=wrap;rounded=1;labelBackgroundColor=none;strokeColor=#909090;fontColor=#1A1A1A;" vertex="1" parent="AhhlYTa0sZxWNyeGlSW6-172">
          <mxGeometry x="60" width="120" height="30" as="geometry">
            <mxRectangle width="120" height="30" as="alternateBounds" />
          </mxGeometry>
        </mxCell>
        <mxCell id="AhhlYTa0sZxWNyeGlSW6-175" value="" style="shape=tableRow;horizontal=0;startSize=0;swimlaneHead=0;swimlaneBody=0;fillColor=none;collapsible=0;dropTarget=0;points=[[0,0.5],[1,0.5]];portConstraint=eastwest;top=0;left=0;right=0;bottom=1;html=1;rounded=1;labelBackgroundColor=none;strokeColor=#909090;fontColor=#1A1A1A;" vertex="1" parent="AhhlYTa0sZxWNyeGlSW6-171">
          <mxGeometry y="60" width="180" height="30" as="geometry" />
        </mxCell>
        <mxCell id="AhhlYTa0sZxWNyeGlSW6-176" value="FK" style="shape=partialRectangle;connectable=0;fillColor=none;top=0;left=0;bottom=0;right=0;fontStyle=1;overflow=hidden;html=1;whiteSpace=wrap;rounded=1;labelBackgroundColor=none;strokeColor=#909090;fontColor=#1A1A1A;" vertex="1" parent="AhhlYTa0sZxWNyeGlSW6-175">
          <mxGeometry width="60" height="30" as="geometry">
            <mxRectangle width="60" height="30" as="alternateBounds" />
          </mxGeometry>
        </mxCell>
        <mxCell id="AhhlYTa0sZxWNyeGlSW6-177" value="User_ID" style="shape=partialRectangle;connectable=0;fillColor=none;top=0;left=0;bottom=0;right=0;align=left;spacingLeft=6;fontStyle=5;overflow=hidden;html=1;whiteSpace=wrap;rounded=1;labelBackgroundColor=none;strokeColor=#909090;fontColor=#1A1A1A;" vertex="1" parent="AhhlYTa0sZxWNyeGlSW6-175">
          <mxGeometry x="60" width="120" height="30" as="geometry">
            <mxRectangle width="120" height="30" as="alternateBounds" />
          </mxGeometry>
        </mxCell>
        <mxCell id="AhhlYTa0sZxWNyeGlSW6-178" value="" style="shape=tableRow;horizontal=0;startSize=0;swimlaneHead=0;swimlaneBody=0;fillColor=none;collapsible=0;dropTarget=0;points=[[0,0.5],[1,0.5]];portConstraint=eastwest;top=0;left=0;right=0;bottom=0;html=1;rounded=1;labelBackgroundColor=none;strokeColor=#909090;fontColor=#1A1A1A;" vertex="1" parent="AhhlYTa0sZxWNyeGlSW6-171">
          <mxGeometry y="90" width="180" height="30" as="geometry" />
        </mxCell>
        <mxCell id="AhhlYTa0sZxWNyeGlSW6-179" value="" style="shape=partialRectangle;connectable=0;fillColor=none;top=0;left=0;bottom=0;right=0;editable=1;overflow=hidden;html=1;whiteSpace=wrap;rounded=1;labelBackgroundColor=none;strokeColor=#909090;fontColor=#1A1A1A;" vertex="1" parent="AhhlYTa0sZxWNyeGlSW6-178">
          <mxGeometry width="60" height="30" as="geometry">
            <mxRectangle width="60" height="30" as="alternateBounds" />
          </mxGeometry>
        </mxCell>
        <mxCell id="AhhlYTa0sZxWNyeGlSW6-180" value="Plane_name" style="shape=partialRectangle;connectable=0;fillColor=none;top=0;left=0;bottom=0;right=0;align=left;spacingLeft=6;overflow=hidden;html=1;whiteSpace=wrap;rounded=1;labelBackgroundColor=none;strokeColor=#909090;fontColor=#1A1A1A;" vertex="1" parent="AhhlYTa0sZxWNyeGlSW6-178">
          <mxGeometry x="60" width="120" height="30" as="geometry">
            <mxRectangle width="120" height="30" as="alternateBounds" />
          </mxGeometry>
        </mxCell>
        <mxCell id="AhhlYTa0sZxWNyeGlSW6-181" value="" style="shape=tableRow;horizontal=0;startSize=0;swimlaneHead=0;swimlaneBody=0;fillColor=none;collapsible=0;dropTarget=0;points=[[0,0.5],[1,0.5]];portConstraint=eastwest;top=0;left=0;right=0;bottom=0;html=1;rounded=1;labelBackgroundColor=none;strokeColor=#909090;fontColor=#1A1A1A;" vertex="1" parent="AhhlYTa0sZxWNyeGlSW6-171">
          <mxGeometry y="120" width="180" height="30" as="geometry" />
        </mxCell>
        <mxCell id="AhhlYTa0sZxWNyeGlSW6-182" value="" style="shape=partialRectangle;connectable=0;fillColor=none;top=0;left=0;bottom=0;right=0;editable=1;overflow=hidden;html=1;whiteSpace=wrap;rounded=1;labelBackgroundColor=none;strokeColor=#909090;fontColor=#1A1A1A;" vertex="1" parent="AhhlYTa0sZxWNyeGlSW6-181">
          <mxGeometry width="60" height="30" as="geometry">
            <mxRectangle width="60" height="30" as="alternateBounds" />
          </mxGeometry>
        </mxCell>
        <mxCell id="AhhlYTa0sZxWNyeGlSW6-183" value="Description" style="shape=partialRectangle;connectable=0;fillColor=none;top=0;left=0;bottom=0;right=0;align=left;spacingLeft=6;overflow=hidden;html=1;whiteSpace=wrap;rounded=1;labelBackgroundColor=none;strokeColor=#909090;fontColor=#1A1A1A;" vertex="1" parent="AhhlYTa0sZxWNyeGlSW6-181">
          <mxGeometry x="60" width="120" height="30" as="geometry">
            <mxRectangle width="120" height="30" as="alternateBounds" />
          </mxGeometry>
        </mxCell>
        <mxCell id="AhhlYTa0sZxWNyeGlSW6-184" style="shape=tableRow;horizontal=0;startSize=0;swimlaneHead=0;swimlaneBody=0;fillColor=none;collapsible=0;dropTarget=0;points=[[0,0.5],[1,0.5]];portConstraint=eastwest;top=0;left=0;right=0;bottom=0;html=1;rounded=1;labelBackgroundColor=none;strokeColor=#909090;fontColor=#1A1A1A;" vertex="1" parent="AhhlYTa0sZxWNyeGlSW6-171">
          <mxGeometry y="150" width="180" height="30" as="geometry" />
        </mxCell>
        <mxCell id="AhhlYTa0sZxWNyeGlSW6-185" style="shape=partialRectangle;connectable=0;fillColor=none;top=0;left=0;bottom=0;right=0;editable=1;overflow=hidden;html=1;whiteSpace=wrap;rounded=1;labelBackgroundColor=none;strokeColor=#909090;fontColor=#1A1A1A;" vertex="1" parent="AhhlYTa0sZxWNyeGlSW6-184">
          <mxGeometry width="60" height="30" as="geometry">
            <mxRectangle width="60" height="30" as="alternateBounds" />
          </mxGeometry>
        </mxCell>
        <mxCell id="AhhlYTa0sZxWNyeGlSW6-186" value="Start_Date" style="shape=partialRectangle;connectable=0;fillColor=none;top=0;left=0;bottom=0;right=0;align=left;spacingLeft=6;overflow=hidden;html=1;whiteSpace=wrap;rounded=1;labelBackgroundColor=none;strokeColor=#909090;fontColor=#1A1A1A;" vertex="1" parent="AhhlYTa0sZxWNyeGlSW6-184">
          <mxGeometry x="60" width="120" height="30" as="geometry">
            <mxRectangle width="120" height="30" as="alternateBounds" />
          </mxGeometry>
        </mxCell>
        <mxCell id="AhhlYTa0sZxWNyeGlSW6-187" style="shape=tableRow;horizontal=0;startSize=0;swimlaneHead=0;swimlaneBody=0;fillColor=none;collapsible=0;dropTarget=0;points=[[0,0.5],[1,0.5]];portConstraint=eastwest;top=0;left=0;right=0;bottom=0;html=1;rounded=1;labelBackgroundColor=none;strokeColor=#909090;fontColor=#1A1A1A;" vertex="1" parent="AhhlYTa0sZxWNyeGlSW6-171">
          <mxGeometry y="180" width="180" height="30" as="geometry" />
        </mxCell>
        <mxCell id="AhhlYTa0sZxWNyeGlSW6-188" style="shape=partialRectangle;connectable=0;fillColor=none;top=0;left=0;bottom=0;right=0;editable=1;overflow=hidden;html=1;whiteSpace=wrap;rounded=1;labelBackgroundColor=none;strokeColor=#909090;fontColor=#1A1A1A;" vertex="1" parent="AhhlYTa0sZxWNyeGlSW6-187">
          <mxGeometry width="60" height="30" as="geometry">
            <mxRectangle width="60" height="30" as="alternateBounds" />
          </mxGeometry>
        </mxCell>
        <mxCell id="AhhlYTa0sZxWNyeGlSW6-189" value="End_Date" style="shape=partialRectangle;connectable=0;fillColor=none;top=0;left=0;bottom=0;right=0;align=left;spacingLeft=6;overflow=hidden;html=1;whiteSpace=wrap;rounded=1;labelBackgroundColor=none;strokeColor=#909090;fontColor=#1A1A1A;" vertex="1" parent="AhhlYTa0sZxWNyeGlSW6-187">
          <mxGeometry x="60" width="120" height="30" as="geometry">
            <mxRectangle width="120" height="30" as="alternateBounds" />
          </mxGeometry>
        </mxCell>
        <mxCell id="AhhlYTa0sZxWNyeGlSW6-190" value="" style="edgeStyle=entityRelationEdgeStyle;fontSize=12;html=1;endArrow=ERoneToMany;rounded=1;entryX=0;entryY=0.5;entryDx=0;entryDy=0;labelBackgroundColor=none;strokeColor=#182E3E;fontColor=default;" edge="1" parent="1" target="AhhlYTa0sZxWNyeGlSW6-44">
          <mxGeometry width="100" height="100" relative="1" as="geometry">
            <mxPoint x="220" y="370" as="sourcePoint" />
            <mxPoint x="320" y="270" as="targetPoint" />
          </mxGeometry>
        </mxCell>
        <mxCell id="AhhlYTa0sZxWNyeGlSW6-198" value="has" style="edgeLabel;html=1;align=center;verticalAlign=middle;resizable=0;points=[];labelBorderColor=default;fontStyle=1;rounded=1;labelBackgroundColor=none;fontColor=#1A1A1A;" vertex="1" connectable="0" parent="AhhlYTa0sZxWNyeGlSW6-190">
          <mxGeometry x="-0.0095" y="2" relative="1" as="geometry">
            <mxPoint y="1" as="offset" />
          </mxGeometry>
        </mxCell>
        <mxCell id="AhhlYTa0sZxWNyeGlSW6-191" value="" style="edgeStyle=entityRelationEdgeStyle;fontSize=12;html=1;endArrow=ERoneToMany;rounded=1;labelBackgroundColor=none;strokeColor=#182E3E;fontColor=default;" edge="1" parent="1">
          <mxGeometry width="100" height="100" relative="1" as="geometry">
            <mxPoint x="500" y="100" as="sourcePoint" />
            <mxPoint x="640" y="250" as="targetPoint" />
          </mxGeometry>
        </mxCell>
        <mxCell id="AhhlYTa0sZxWNyeGlSW6-199" value="contains" style="edgeLabel;html=1;align=center;verticalAlign=middle;resizable=0;points=[];labelBorderColor=default;fontStyle=1;rounded=1;labelBackgroundColor=none;fontColor=#1A1A1A;" vertex="1" connectable="0" parent="AhhlYTa0sZxWNyeGlSW6-191">
          <mxGeometry x="0.0066" y="1" relative="1" as="geometry">
            <mxPoint y="1" as="offset" />
          </mxGeometry>
        </mxCell>
        <mxCell id="AhhlYTa0sZxWNyeGlSW6-192" value="" style="edgeStyle=entityRelationEdgeStyle;fontSize=12;html=1;endArrow=ERoneToMany;rounded=1;exitX=0.986;exitY=0.167;exitDx=0;exitDy=0;exitPerimeter=0;labelBackgroundColor=none;strokeColor=#182E3E;fontColor=default;" edge="1" parent="1" source="AhhlYTa0sZxWNyeGlSW6-8">
          <mxGeometry width="100" height="100" relative="1" as="geometry">
            <mxPoint x="220" y="435" as="sourcePoint" />
            <mxPoint x="510" y="455" as="targetPoint" />
          </mxGeometry>
        </mxCell>
        <mxCell id="AhhlYTa0sZxWNyeGlSW6-197" value="has" style="edgeLabel;html=1;align=center;verticalAlign=middle;resizable=0;points=[];labelBorderColor=default;fontStyle=1;rounded=1;labelBackgroundColor=none;fontColor=#1A1A1A;" vertex="1" connectable="0" parent="AhhlYTa0sZxWNyeGlSW6-192">
          <mxGeometry x="-0.0103" relative="1" as="geometry">
            <mxPoint as="offset" />
          </mxGeometry>
        </mxCell>
        <mxCell id="AhhlYTa0sZxWNyeGlSW6-193" value="" style="edgeStyle=entityRelationEdgeStyle;fontSize=12;html=1;endArrow=ERoneToMany;rounded=1;labelBackgroundColor=none;strokeColor=#182E3E;fontColor=default;" edge="1" parent="1" target="AhhlYTa0sZxWNyeGlSW6-115">
          <mxGeometry width="100" height="100" relative="1" as="geometry">
            <mxPoint x="220" y="480" as="sourcePoint" />
            <mxPoint x="320" y="380" as="targetPoint" />
            <Array as="points">
              <mxPoint x="100" y="520" />
            </Array>
          </mxGeometry>
        </mxCell>
        <mxCell id="AhhlYTa0sZxWNyeGlSW6-196" value="has" style="edgeLabel;html=1;align=center;verticalAlign=middle;resizable=0;points=[];labelBorderColor=default;fontStyle=1;rounded=1;labelBackgroundColor=none;fontColor=#1A1A1A;" vertex="1" connectable="0" parent="AhhlYTa0sZxWNyeGlSW6-193">
          <mxGeometry x="-0.0214" y="-2" relative="1" as="geometry">
            <mxPoint y="-1" as="offset" />
          </mxGeometry>
        </mxCell>
        <mxCell id="AhhlYTa0sZxWNyeGlSW6-194" value="" style="edgeStyle=entityRelationEdgeStyle;fontSize=12;html=1;endArrow=ERzeroToMany;startArrow=ERmandOne;rounded=1;entryX=0;entryY=0.5;entryDx=0;entryDy=0;labelBackgroundColor=none;strokeColor=#182E3E;fontColor=default;" edge="1" parent="1" target="AhhlYTa0sZxWNyeGlSW6-175">
          <mxGeometry width="100" height="100" relative="1" as="geometry">
            <mxPoint x="220" y="560" as="sourcePoint" />
            <mxPoint x="320" y="460" as="targetPoint" />
          </mxGeometry>
        </mxCell>
        <mxCell id="AhhlYTa0sZxWNyeGlSW6-195" value="has" style="edgeLabel;html=1;align=center;verticalAlign=middle;resizable=0;points=[];labelBorderColor=default;fontStyle=1;rounded=1;labelBackgroundColor=none;fontColor=#1A1A1A;" vertex="1" connectable="0" parent="AhhlYTa0sZxWNyeGlSW6-194">
          <mxGeometry x="0.0315" relative="1" as="geometry">
            <mxPoint as="offset" />
          </mxGeometry>
        </mxCell>
        <mxCell id="AhhlYTa0sZxWNyeGlSW6-200" value="" style="edgeStyle=entityRelationEdgeStyle;fontSize=12;html=1;endArrow=ERmany;startArrow=ERmany;rounded=1;entryX=-0.012;entryY=0.167;entryDx=0;entryDy=0;entryPerimeter=0;exitX=1;exitY=0.029;exitDx=0;exitDy=0;exitPerimeter=0;labelBackgroundColor=none;strokeColor=#182E3E;fontColor=default;" edge="1" parent="1" source="AhhlYTa0sZxWNyeGlSW6-83" target="AhhlYTa0sZxWNyeGlSW6-60">
          <mxGeometry width="100" height="100" relative="1" as="geometry">
            <mxPoint x="515" y="340" as="sourcePoint" />
            <mxPoint x="615" y="240" as="targetPoint" />
          </mxGeometry>
        </mxCell>
        <mxCell id="AhhlYTa0sZxWNyeGlSW6-202" value="" style="edgeStyle=entityRelationEdgeStyle;fontSize=12;html=1;endArrow=ERmany;startArrow=ERmany;rounded=1;entryX=0;entryY=0.5;entryDx=0;entryDy=0;labelBackgroundColor=none;strokeColor=#182E3E;fontColor=default;" edge="1" parent="1" target="AhhlYTa0sZxWNyeGlSW6-80">
          <mxGeometry width="100" height="100" relative="1" as="geometry">
            <mxPoint x="220" y="410" as="sourcePoint" />
            <mxPoint x="320" y="310" as="targetPoint" />
          </mxGeometry>
        </mxCell>
        <mxCell id="AhhlYTa0sZxWNyeGlSW6-203" value="has" style="edgeLabel;html=1;align=center;verticalAlign=middle;resizable=0;points=[];labelBorderColor=default;fontStyle=1;rounded=1;labelBackgroundColor=none;fontColor=#1A1A1A;" vertex="1" connectable="0" parent="AhhlYTa0sZxWNyeGlSW6-202">
          <mxGeometry x="-0.0914" relative="1" as="geometry">
            <mxPoint as="offset" />
          </mxGeometry>
        </mxCell>
      </root>
    </mxGraphModel>
  </diagram>
</mxfile>
